<svg width="48" height="48" viewBox="0 0 48 48" fill="none" xmlns="http://www.w3.org/2000/svg">
  <g filter="url(#waxShadow)">
    <path d="M24 2C11.85 2 2 11.85 2 24C2 36.15 11.85 46 24 46C36.15 46 46 36.15 46 24C46 11.85 36.15 2 24 2ZM23.83 43.1C13.43 43.1 4.9 34.57 4.9 24.17C4.9 13.77 13.43 5.24 23.83 5.24C34.23 5.24 42.76 13.77 42.76 24.17C42.76 34.57 34.23 43.1 23.83 43.1Z" fill="#800000"/>
    
    <path d="M23.83 5.24C13.43 5.24 4.9 13.77 4.9 24.17C4.9 34.57 13.43 43.1 23.83 43.1C34.23 43.1 42.76 34.57 42.76 24.17C42.76 13.77 34.23 5.24 23.83 5.24Z" fill="#700000"/>
  </g>

  <g fill="#D4AF37">
    <path d="M24 8L26.5 10.5L24 13L21.5 10.5L24 8Z" />
    <path d="M16 14C16.5 16 18.5 18 21 19V20C17.5 19.5 15.5 17.5 14.5 15C13.5 17.5 11.5 19.5 8 20V19C10.5 18 12.5 16 13 14" opacity="0.6"/>
    <path d="M32 14C31.5 16 29.5 18 27 19V20C30.5 19.5 32.5 17.5 33.5 15C34.5 17.5 36.5 19.5 40 20V19C37.5 18 35.5 16 35 14" opacity="0.6"/>
  </g>

  <path d="M21.5 17H26C28.2 17 29.5 18.3 29.5 20.5C29.5 22.7 28.2 24 26 24H21.5V17Z" fill="url(#goldGradient)" />
  <path d="M21.5 24V33" stroke="url(#goldGradient)" stroke-width="2" stroke-linecap="round"/>
  <path d="M26 24L31 33" stroke="url(#goldGradient)" stroke-width="2.5" stroke-linecap="round"/>
  <path d="M22.5 18C20 19 18 22 18 25C18 31 23 35 28.5 35" stroke="url(#goldGradient)" stroke-width="1.5" stroke-dasharray="2 2" opacity="0.8" />

  <defs>
    <linearGradient id="goldGradient" x1="24" y1="17" x2="24" y2="35" gradientUnits="userSpaceOnUse">
      <stop stop-color="#F2D479"/>
      <stop offset="0.5" stop-color="#D4AF37"/>
      <stop offset="1" stop-color="#B48A30"/>
    </linearGradient>
    
    <filter id="waxShadow" x="0" y="0" width="48" height="48" filterUnits="userSpaceOnUse" color-interpolation-filters="sRGB">
      <feFlood flood-opacity="0" result="BackgroundImageFix"/>
      <feBlend mode="normal" in="SourceGraphic" in2="BackgroundImageFix" result="shape"/>
      <feColorMatrix in="SourceAlpha" type="matrix" values="0 0 0 0 0 0 0 0 0 0 0 0 0 0 0 0 0 0 127 0" result="hardAlpha"/>
      <feOffset dy="2"/>
      <feGaussianBlur stdDeviation="1.5"/>
      <feComposite in2="hardAlpha" operator="arithmetic" k2="-1" k3="1"/>
      <feColorMatrix type="matrix" values="0 0 0 0 0 0 0 0 0 0 0 0 0 0 0 0 0 0 0.15 0"/>
      <feBlend mode="normal" in2="shape" result="effect1_innerShadow"/>
    </filter>
  </defs>
</svg>