<svg xmlns="http://www.w3.org/2000/svg" data-name="Layer 1" viewBox="0 0 200 250" x="0px" y="0px"><title>Artboard 14</title><path d="M133.22,161a.9.9,0,0,0-.59,1.69c2.19.85,5.28,1.86,6.79,3.76,3.13,3.94,1.07,9.23-3.08,11.55-5.53,3.09-14,1.74-19.86.18a36.91,36.91,0,0,1-8.14-3.09c-1.28-.71-2.93-1.57-3.74-2.86-1.16-1.88,1-5.73,2.57-7,2-1.59,6.22-2.23,8.79-2.63a33.28,33.28,0,0,1,5.06-.4c0,1.9,0,3.8,0,5.69,0,1.28,1.84,1.2,2,0,.24-1.87.41-3.75.53-5.64,1.36.08,2.71.23,4.07.44.47.08.79-.63.27-.75a42.6,42.6,0,0,0-4.27-.69c.36-6.11.24-12.28.17-18.37-.09-7.08-.07-14.35-1-21.41a12.36,12.36,0,0,0,2.32-.29c12.47-2.63,12.42-21.84,13.36-31.46a363.59,363.59,0,0,0,1.2-44.53.8.8,0,0,0-1.59,0c-.26,10,0,20-.44,30a184.38,184.38,0,0,0-26,.51c0-10.8.19-21.6.59-32.39a.32.32,0,0,0-.05-.22h.07c7.51.21,14.94.84,22.42,1.47.77.07,1.14-1.25.29-1.38a107.91,107.91,0,0,0-22.65-.82.41.41,0,0,0-.38.51.52.52,0,0,0-.68.43A439.83,439.83,0,0,0,110,96.91c.28,7.88,1.36,23.7,11.57,24.52-.31,7.45.11,14.95,0,22.4-.07,5.73-.42,11.48-.55,17.22a33.43,33.43,0,0,0-7.89.61c-3.44.7-8.77,1.76-10.79,5.05-4.7,7.67,8.34,12.13,13.41,13.53,7.89,2.19,20.12,3.73,25.59-4S140.23,163.27,133.22,161Zm-20.48-54.6c-1-7-.83-14.34-1-21.42,0-2.76-.07-5.53-.09-8.3,8.62.27,17.24.14,25.85.48,0,.58,0,1.16-.08,1.74-.33,6-.86,12.06-1.68,18-.92,6.66-1.19,16-7,20.36C120.3,123.65,113.79,114,112.74,106.42Zm-13-83.48c.18-.19.18-.55-.13-.61A107.15,107.15,0,0,0,77.2,19.74a.71.71,0,1,0-.11,1.41c7.49.49,14.93,1,22.38,1.9h.14a.46.46,0,0,0-.16.29q-1.8,16.05-4.25,32A186,186,0,0,0,69.62,51c1.12-10,2.8-19.89,4.06-29.86.13-1-1.43-.92-1.6,0a360,360,0,0,0-5.54,45.56c-.44,9.15-3.15,28.63,9.22,31.93a13,13,0,0,0,1.63.32c-2,6.9-3.09,14.15-4.24,21.21-1,6-2,12-2.57,18-1.4-.05-2.8,0-4.22.06-.49,0-.61.78-.06.77a41.83,41.83,0,0,1,4.19.2q-.26,2.9-.33,5.77c0,1.31,1.79,1.16,2,0,.31-1.81.58-3.63.83-5.45a34.17,34.17,0,0,1,11.45,4,16.38,16.38,0,0,1,2.71,1.73c3,2.66,2,5.62-.85,7.83-2,1.59-6.06,2.18-8.54,2.6-6.41,1.07-15,1.41-20.86-2-4-2.3-7.4-8.54-3.19-12.48,2-1.84,5.19-2.41,7.74-3a.86.86,0,1,0-.34-1.69c-6.92,1.12-14.25,5.21-10.65,13.35,4.08,9.22,17.54,9.24,25.93,8.07,5-.7,17.29-3.13,14.51-10.93-1.23-3.47-5.5-5.09-8.63-6.38a33.55,33.55,0,0,0-9.13-2.3c.74-5.74,1.26-11.53,2.06-17.26,1-7.35,2.55-14.68,3.36-22.06C89.66,99.49,92.5,82.88,94,74.68a440.93,440.93,0,0,0,6.42-51.34C100.46,22.92,100.05,22.8,99.75,22.94ZM93.93,63.33c-1.17,6.92-2.22,14-4,20.8C88.59,89.52,84.08,96.8,78.55,97a.51.51,0,0,0-.48,0,8.46,8.46,0,0,1-5.6-2.69c-4.81-4.63-4.25-12.17-4.29-18.28,0-6.53.3-13.07.88-19.58.1-1.18.22-2.35.34-3.52,8.58,1,17.08,2.36,25.64,3.39C94.68,58.68,94.32,61,93.93,63.33ZM149.62,71c3.29-1,6.59-1.93,9.9-2.85,1.12-.31,1.42,1.37.33,1.63-3.34.78-6.67,1.56-10,2.28A.54.54,0,1,1,149.62,71Zm20,21.79A117.64,117.64,0,0,1,148.71,82.5c-.41-.25,0-.75.4-.59,7.17,2.89,14.32,6.08,21.34,9.32C171.37,91.66,170.53,93.12,169.66,92.79Zm-91.5-3.12a1,1,0,0,1-1.37-1.42c.11-.22.47-.17.4.1s.25,1,.7.67.14-.66-.16-.8,0-.83.34-.68A1.13,1.13,0,0,1,78.16,89.67ZM84,82.74a.17.17,0,0,0-.23.05h0a.3.3,0,0,0-.14.21,1.2,1.2,0,0,0-.09,1.16.89.89,0,0,0,1.1.39.87.87,0,0,0,.46-1.06A1.14,1.14,0,0,0,84,82.74Zm.3,1.34c-.46,0-.49-.42-.4-.78a.79.79,0,0,1,.53.2C84.57,83.7,84.6,84.06,84.27,84.08Zm-7.8-3.87a1.47,1.47,0,0,1-.87,1.67,1.43,1.43,0,0,1-1.72-.43,1.55,1.55,0,0,1,0-1.77c.11-.16.44-.07.34.13-.26.53,0,1.45.78,1.31a.4.4,0,1,0-.14-.78c-.68.07-.69-1-.07-1.1A1.42,1.42,0,0,1,76.47,80.21Zm46.41,29.44a1.15,1.15,0,0,1-1.62-1.42c.07-.2.45-.19.4,0-.08.47.3,1.07.84.79a.55.55,0,0,0-.14-1c-.48-.16-.2-.84.25-.71A1.22,1.22,0,0,1,122.88,109.65Zm6.59-6.59a1,1,0,0,0,.47-1.23,1.28,1.28,0,0,0-1.3-.71.15.15,0,0,0-.23,0,1.45,1.45,0,0,0-.12,1.52A1,1,0,0,0,129.47,103.06Zm-.32-.46c-.55.1-.65-.47-.58-.91a1,1,0,0,1,.61.13C129.44,102,129.62,102.52,129.15,102.6Zm-8.05-2.18a1.59,1.59,0,0,1-2-.38,1.72,1.72,0,0,1-.09-1.86c.1-.18.42-.07.34.13a1,1,0,0,0,.22,1.17,1,1,0,0,0,.92.23c.54-.23.38-1.14-.24-1s-.92-.87-.22-1.08a1.52,1.52,0,0,1,1.84.94A1.6,1.6,0,0,1,121.1,100.42Zm33.3,2.92c.52.78-.87,1.52-1.38.74-2.21-3.41-4.49-6.81-6.36-10.43-.19-.36.38-.78.65-.45C149.9,96.41,152.14,99.9,154.4,103.34ZM51.52,44.23A112.16,112.16,0,0,1,31,46.46c-1.21,0-1-1.74.14-1.76,6.8-.11,13.57-.58,20.36-.94C51.8,43.74,51.79,44.18,51.52,44.23Zm1.63,11.31c-2.59,2.14-5.08,4.33-7.85,6.24a.65.65,0,0,1-.77-1c2.63-2.1,5.45-3.85,8.24-5.71A.32.32,0,0,1,53.15,55.54ZM42.26,25.93c5.17,2.58,10.45,5,15.52,7.74,1,.53,0,1.89-1,1.43-5.12-2.61-10.06-5.6-15.08-8.4C41.23,26.41,41.78,25.69,42.26,25.93Z"/><text x="0" y="215" fill="#000000" font-size="5px" font-weight="bold" font-family="'Helvetica Neue', Helvetica, Arial-Unicode, Arial, Sans-serif">Created by Caroline Mackay</text><text x="0" y="220" fill="#000000" font-size="5px" font-weight="bold" font-family="'Helvetica Neue', Helvetica, Arial-Unicode, Arial, Sans-serif">from the Noun Project</text></svg>